<svg xmlns="http://www.w3.org/2000/svg" xmlns:xlink="http://www.w3.org/1999/xlink" width="12" height="12" viewBox="0 0 12 12">
  <defs>
    <path id="icon-login-a" d="M7,1.16666667 C3.78,1.16666667 1.16666667,3.78 1.16666667,7 C1.16666667,10.22 3.78,12.8333333 7,12.8333333 C10.22,12.8333333 12.8333333,10.22 12.8333333,7 C12.8333333,3.78 10.22,1.16666667 7,1.16666667 L7,1.16666667 Z M7,2.91666667 C7.96833333,2.91666667 8.75,3.69833333 8.75,4.66666667 C8.75,5.635 7.96833333,6.41666667 7,6.41666667 C6.03166667,6.41666667 5.25,5.635 5.25,4.66666667 C5.25,3.69833333 6.03166667,2.91666667 7,2.91666667 L7,2.91666667 Z M7,11.2 C5.54166667,11.2 4.2525,10.4533333 3.5,9.32166667 C3.5175,8.16083333 5.83333333,7.525 7,7.525 C8.16083333,7.525 10.4825,8.16083333 10.5,9.32166667 C9.7475,10.4533333 8.45833333,11.2 7,11.2 L7,11.2 Z"/>
    <path id="icon-login-c" d="M0 0H29V29H0z"/>
  </defs>
  <g fill="none" fill-rule="evenodd" transform="translate(-1 -1)">
    <mask id="icon-login-b" fill="#fff">
      <use xlink:href="#icon-login-a"/>
    </mask>
    <g mask="url(#icon-login-b)">
      <use fill="#FFF" transform="translate(-7.583 -7.583)" xlink:href="#icon-login-c"/>
    </g>
  </g>
</svg>
